inDegrees=no
num_controls=7
num_derivatives=13
num_iterations=118
num_multipliers=7
num_parameters=0
num_slacks=7
num_states=26
objective=5.219310
objective_accelerations=0.468762
objective_balance=0.093671
objective_effort=0.381176
objective_height=4.255136
objective_ligament=0.020565
solver_duration=1320.112432
status=Solve_Succeeded
success=true
DataType=double
version=3
OpenSimVersion=4.4-2022-07-23-0e9fedc
endheader
time	/jointset/ground_pelvis/pelvis_tilt/value	/jointset/ground_pelvis/pelvis_tx/value	/jointset/ground_pelvis/pelvis_ty/value	/jointset/hip_l/hip_flexion_l/value	/jointset/hip_l/hip_adduction_l/value	/jointset/hip_l/hip_rotation_l/value	/jointset/back/lumbar_extension/value	/jointset/patellofemoral_l/patellar_flexion_l/value	/jointset/knee_l/knee_flexion_l/value	/jointset/knee_l/knee_adduction_l/value	/jointset/knee_l/knee_rotation_l/value	/jointset/ankle_l/ankle_angle_l/value	/jointset/subtalar_l/subtalar_angle_l/value	/jointset/ground_pelvis/pelvis_tilt/speed	/jointset/ground_pelvis/pelvis_tx/speed	/jointset/ground_pelvis/pelvis_ty/speed	/jointset/hip_l/hip_flexion_l/speed	/jointset/hip_l/hip_adduction_l/speed	/jointset/hip_l/hip_rotation_l/speed	/jointset/back/lumbar_extension/speed	/jointset/patellofemoral_l/patellar_flexion_l/speed	/jointset/knee_l/knee_flexion_l/speed	/jointset/knee_l/knee_adduction_l/speed	/jointset/knee_l/knee_rotation_l/speed	/jointset/ankle_l/ankle_angle_l/speed	/jointset/subtalar_l/subtalar_angle_l/speed	/forceset/tau_hip_flexion_l	/forceset/tau_hip_adduction_l	/forceset/tau_hip_rotation_l	/forceset/tau_knee_flexion_l	/forceset/tau_ankle_angle_l	/forceset/tau_subtalar_angle_l	/forceset/tau_lumbar_extension	lambda_cid13_p0	lambda_cid13_p1	lambda_cid13_p2	lambda_cid13_p3	lambda_cid13_p4	lambda_cid13_p5	lambda_cid14_p0	/jointset/ground_pelvis/pelvis_tilt/accel	/jointset/ground_pelvis/pelvis_tx/accel	/jointset/ground_pelvis/pelvis_ty/accel	/jointset/hip_l/hip_flexion_l/accel	/jointset/hip_l/hip_adduction_l/accel	/jointset/hip_l/hip_rotation_l/accel	/jointset/back/lumbar_extension/accel	/jointset/patellofemoral_l/patellar_flexion_l/accel	/jointset/knee_l/knee_flexion_l/accel	/jointset/knee_l/knee_adduction_l/accel	/jointset/knee_l/knee_rotation_l/accel	/jointset/ankle_l/ankle_angle_l/accel	/jointset/subtalar_l/subtalar_angle_l/accel	gamma_cid13_p0	gamma_cid13_p1	gamma_cid13_p2	gamma_cid13_p3	gamma_cid13_p4	gamma_cid13_p5	gamma_cid14_p0
1.5	-0.4084381743567627	-0.04792854594674277	0.7888894356515749	1.136386308572211	-0.3077872688959941	-0.07091462542819937	-0.3318655939185022	0.6125255925008878	0.6125255925007873	-0.1742464174179383	0.1744306037872397	0.04793546260765161	-0.04397591589052571	0.6370778309805306	0.2182600737552793	0.387952153710878	-1.995922481017164	0.04474821976613229	-0.5410874559719285	0.5760301415213551	-1.546327494853958	-1.546327494854336	0.001868860137269815	-0.0001176622330201057	-0.2707346011691708	0.009428534251518343	-0.2283372171861166	0.02823545119754413	-0.01940138909308972	-0.1854588922912673	0.1075708646780373	0.04082947876768356	0.2105834099759065	-4.498813261826148	-20.33288125574031	6.709507053560192	-0.9708403205288759	-612.5417616371182	-57.88163615154396	-32.4891423417092	0.4714096860126963	0.4967526290275238	-0.2361756083055168	-1.256398486874244	0.4735134441082076	-0.270011342602094	1.4779781813098	-0.930332634482708	-0.9303326344827137	0.0108446093925169	-0.03360250761152946	-0.08916503281614732	0.4545719264406439	2.91254462056599e-08	9.520361655674463e-07	-2.202350296412095e-07	1.130454789123554e-07	1.339420261543954e-07	1.947215728558685e-07	1.322570594049375e-07
1.51	-0.402044217155593	-0.04572130080162063	0.7927564256187067	1.116366271913514	-0.3073168145342668	-0.07633931135001108	-0.3260326366156469	0.5970179335549713	0.5970179335549332	-0.1742282293446309	0.1744292644292141	0.04522392048534299	-0.04385965467071486	0.6416282111224132	0.223163074464874	0.3853718507195434	-2.007809019468222	0.04934940005479826	-0.543771736201489	0.5904829692053969	-1.554985338044154	-1.554985338044036	0.001765245284942498	-0.00015406556789957	-0.2715239350639814	0.01383280301099027	-0.2211616115074957	0.02713197788999264	-0.01937933154401742	-0.184601877790583	0.1088765238841847	0.03999679142830588	0.2049768761440915	-3.912251184769878	-20.1707742489037	6.794261658709171	-1.092844640650369	-609.0888417784934	-58.17245043328654	-33.26965278564928	0.4340498969288337	0.4832162606986414	-0.280027573546872	-1.113397564083671	0.4543352573919498	-0.2557940066498604	1.4171825862621	-0.8006940259611491	-0.8006940258868609	-0.02133012566339691	0.01084821531370517	-0.06632299658861	0.4345832311555307	2.467297961546769e-08	9.983073317405739e-07	-2.186645064809471e-07	1.195874671278924e-07	1.393288319111133e-07	2.102142303431992e-07	1.35082704889054e-07
1.52	-0.3956073166092435	-0.04346579715564609	0.796595398570125	1.096235646662355	-0.3068001653824331	-0.08178847160280389	-0.320057501531085	0.5814302594042319	0.5814302594042188	-0.1742111505384744	0.1744274625302009	0.04250598393833174	-0.04369910498721775	0.6456665000103019	0.2279117739257595	0.3823487505681598	-2.018040199513764	0.05398717778930415	-0.545982322171724	0.6044656978617851	-1.562330535821277	-1.562330535820663	0.001647006707900512	-0.0002101704331862157	-0.2720134861098041	0.01828622698866668	-0.2139860058288691	0.02602850458248981	-0.01935727399499089	-0.183744863289881	0.1101821830903471	0.0391641040889817	0.1993703423122666	-3.333526544204196	-20.00919681334526	6.881273194547203	-1.200893429653346	-605.760200667237	-58.50966029921406	-34.02576576028345	0.3689914352148599	0.4658923792849592	-0.3247350403154695	-0.9253268057709656	0.480832933276223	-0.1752724907370442	1.383958375779593	-0.6678035518682127	-0.6678035518682043	0.007919864449688556	-0.03754281369302884	-0.02920846301952575	0.4644029700813729	1.948400760516031e-08	1.042273445259174e-06	-2.161433072303389e-07	1.259910620773461e-07	1.437664847141991e-07	2.252896636440671e-07	1.373375334176504e-07
1.53	-0.3891326006989224	-0.0411636129338285	0.8004019711146099	1.076010976269963	-0.3062370348125578	-0.0872574169463556	-0.3139449780642941	0.5657757165466359	0.5657757165466278	-0.1741954077220746	0.1744250568722401	0.03978465491455251	-0.04349385028667183	0.6491876192192674	0.2324951962311268	0.378895850063576	-2.026612631463645	0.05863889619352451	-0.5477209173708982	0.6179540859439817	-1.568355897854369	-1.568355897853735	0.001491674650140538	-0.0002797258196156397	-0.2722014262534083	0.02276725905770243	-0.2067488382160466	0.02479340542146238	-0.01937699847593469	-0.1829491951313618	0.1116306613071123	0.03820936831608488	0.1936969583351594	-2.715083677880708	-19.80245568361431	6.962098072566482	-1.327987692499051	-602.4789261027412	-58.7833674045614	-34.7541856427729	0.3303184502724337	0.4501131423418659	-0.3660239894077778	-0.7810067374042613	0.4572243851673744	-0.1601303803719202	1.318542592590904	-0.5366098260069477	-0.5366098260037124	-0.02856793580544074	0.007112240201365803	-0.005942191609383684	0.4401863256483749	1.351249858598058e-08	1.083790440332338e-06	-2.126120146337381e-07	1.322476141815863e-07	1.471956625040512e-07	2.399217962468185e-07	1.389858689310067e-07
